HIERARCHY
ROOT Hips
{
	OFFSET 0.000000 0.000000 0.000000
	CHANNELS 6 Xposition Yposition Zposition Yrotation Xrotation Zrotation
	JOINT Chest
	{
		OFFSET 0.000000 -0.009281 11.569106
		CHANNELS 3 Yrotation Xrotation Zrotation
		JOINT Chest2
		{
			OFFSET -0.000000 0.016865 9.269641
			CHANNELS 3 Yrotation Xrotation Zrotation
			JOINT Chest3
			{
				OFFSET -0.000000 0.000001 8.374491
				CHANNELS 3 Yrotation Xrotation Zrotation
				JOINT Chest4
				{
					OFFSET -0.000000 0.000001 8.374493
					CHANNELS 3 Yrotation Xrotation Zrotation
					JOINT Neck
					{
						OFFSET -0.000000 0.000002 12.152554
						CHANNELS 3 Yrotation Xrotation Zrotation
						JOINT Head
						{
							OFFSET -0.000000 0.040101 7.802319
							CHANNELS 3 Yrotation Xrotation Zrotation
							End Site
							{
								OFFSET -0.000000 0.020947 14.853096
							}
						}
					}
					JOINT RightCollar
					{
						OFFSET 2.894404 0.000001 6.791374
						CHANNELS 3 Yrotation Xrotation Zrotation
						JOINT RightShoulder
						{
							OFFSET 13.574684 0.000001 0.000000
							CHANNELS 3 Yrotation Xrotation Zrotation
							JOINT RightElbow
							{
								OFFSET 23.923903 0.000002 0.000000
								CHANNELS 3 Yrotation Xrotation Zrotation
								JOINT RightWrist
								{
									OFFSET 19.846718 0.012767 0.000000
									CHANNELS 3 Yrotation Xrotation Zrotation
									End Site
									{
										OFFSET 14.973145 0.000001 0.000000
									}
								}
							}
						}
					}
					JOINT LeftCollar
					{
						OFFSET -2.894404 0.000001 6.791374
						CHANNELS 3 Yrotation Xrotation Zrotation
						JOINT LeftShoulder
						{
							OFFSET -13.574684 -0.000001 0.000000
							CHANNELS 3 Yrotation Xrotation Zrotation
							JOINT LeftElbow
							{
								OFFSET -23.923903 -0.000002 0.000000
								CHANNELS 3 Yrotation Xrotation Zrotation
								JOINT LeftWrist
								{
									OFFSET -19.846718 0.012763 0.000000
									CHANNELS 3 Yrotation Xrotation Zrotation
									End Site
									{
										OFFSET -14.973145 -0.000001 0.000000
									}
								}
							}
						}
					}
				}
			}
		}
	}
	JOINT RightHip
	{
		OFFSET 9.469263 0.004643 0.045487
		CHANNELS 3 Yrotation Xrotation Zrotation
		JOINT RightKnee
		{
			OFFSET 0.000000 0.002661 -40.478676
			CHANNELS 3 Yrotation Xrotation Zrotation
			JOINT RightAnkle
			{
				OFFSET 0.000000 0.049106 -35.224068
				CHANNELS 3 Yrotation Xrotation Zrotation
				JOINT RightToe
				{
					OFFSET -0.000001 12.539529 -6.151390
					CHANNELS 3 Yrotation Xrotation Zrotation
					End Site
					{
						OFFSET -0.000001 5.044994 -1.291870
					}
				}
			}
		}
	}
	JOINT LeftHip
	{
		OFFSET -9.469263 0.004641 0.045487
		CHANNELS 3 Yrotation Xrotation Zrotation
		JOINT LeftKnee
		{
			OFFSET 0.000000 0.002661 -40.478676
			CHANNELS 3 Yrotation Xrotation Zrotation
			JOINT LeftAnkle
			{
				OFFSET 0.000000 0.049106 -35.224068
				CHANNELS 3 Yrotation Xrotation Zrotation
				JOINT LeftToe
				{
					OFFSET -0.000001 12.539529 -6.151390
					CHANNELS 3 Yrotation Xrotation Zrotation
					End Site
					{
						OFFSET -0.000001 5.044994 -1.291870
					}
				}
			}
		}
	}
}
MOTION
Frames: 8
Frame Time: 0.016667
-33.911964 12.014431 80.737511 -8.026656 5.743914 -85.925399 -0.243978 -3.376053 2.036988 0.006134 -1.554856 1.024248 0.006135 -1.554857 1.024246 0.007208 -1.166136 0.768153 -1.584627 -14.548180 -5.560261 -5.103875 8.810538 -11.047380 11.460273 -3.290506 -2.102971 72.600396 -10.827767 31.019881 6.934701 -20.292033 38.491336 -30.482062 15.708858 36.608274 -8.116847 -0.295101 1.668844 -62.625055 25.984813 20.792634 14.962463 18.170156 14.097586 13.319756 4.314499 -11.847617 -11.850228 5.443306 -10.487919 -3.183388 -64.214099 4.776344 18.658111 -15.387651 5.880247 -20.683713 36.324083 -10.898034 -14.557720 1.748628 -1.153350 -4.164326 -7.851390 9.027598 6.867639 -3.084784 0.562467 -1.298852 -0.503280 -0.090690 
-33.059765 12.131960 80.756104 -7.888273 5.881196 -86.078067 -0.169308 -3.324528 1.953957 0.018614 -1.544767 0.956830 0.018613 -1.544768 0.956829 0.016378 -1.158550 0.717627 -1.899349 -14.400578 -5.335361 -5.624122 9.071081 -10.759339 11.452315 -3.485470 -2.115872 73.816361 -10.099829 29.524459 8.059768 -19.298817 36.974642 -31.259368 18.188681 38.335342 -8.535959 -0.136269 1.471086 -62.833984 25.878950 19.428038 14.656941 17.954462 13.778857 13.925560 4.392323 -12.185299 -11.399495 8.333102 -8.109608 -1.550935 -65.360443 1.998311 17.025384 -14.401654 4.715470 -16.463744 32.005764 -8.372041 -14.885419 1.493525 -1.905489 -4.192545 -8.307125 9.791148 7.102667 -2.112822 1.018087 -1.282113 -0.468432 -0.102468 
-32.218979 12.233520 80.775017 -7.829022 5.991619 -86.255761 -0.113442 -3.306738 1.859730 0.050044 -1.516605 0.871573 0.050044 -1.516604 0.871573 0.039694 -1.137384 0.653766 -2.183937 -14.340694 -5.099053 -6.074253 9.174144 -10.430491 11.394631 -3.555774 -2.147645 74.875437 -9.502133 27.821778 9.335791 -17.825675 34.909923 -31.965022 20.889608 40.224067 -8.819643 -0.223821 1.321762 -63.640499 25.532632 17.745238 14.178417 17.767050 13.270608 14.656519 4.568760 -12.911572 -10.685991 11.167603 -5.202989 0.382544 -65.788628 -1.267371 15.573706 -12.952931 4.274182 -13.505545 28.979161 -6.446539 -15.139569 1.149496 -2.235028 -4.172839 -8.743802 9.983902 7.298991 -1.180810 1.597331 -1.267446 -0.447984 -0.110913 
-31.377851 12.305964 80.790703 -7.778648 6.063849 -86.360290 -0.043611 -3.273846 1.677883 0.090896 -1.477069 0.761924 0.090896 -1.477070 0.761925 0.070010 -1.107692 0.571631 -2.434267 -14.360772 -4.853293 -6.448006 9.134383 -10.063112 11.284748 -3.541200 -2.213127 75.760663 -8.984673 26.072835 10.748049 -15.831468 32.356235 -32.626294 23.517455 41.836992 -9.094958 -0.512891 1.107935 -64.846000 24.935643 15.854715 13.555207 17.803206 12.578671 15.319346 4.826465 -14.050837 -9.832046 13.919271 -2.233755 1.974218 -65.655357 -3.910517 14.405571 -11.060608 3.938719 -11.251063 26.682791 -4.915008 -15.353007 0.697732 -2.260082 -4.073761 -9.019126 9.924541 7.477105 -0.333680 1.992735 -1.236687 -0.437517 -0.093199 
-30.530638 12.366584 80.812546 -7.733524 6.083307 -86.348542 0.034208 -3.236049 1.401486 0.130132 -1.439878 0.629256 0.130132 -1.439879 0.629255 0.099077 -1.079776 0.472223 -2.629843 -14.436243 -4.611678 -6.714926 8.998031 -9.677152 11.144408 -3.564155 -2.289871 76.494171 -8.364152 24.452210 12.119795 -13.445200 29.443378 -33.209947 25.931462 42.771638 -9.391806 -0.879066 0.819203 -66.229933 24.048258 13.748316 12.821684 18.218457 11.803405 15.847338 5.138830 -15.523924 -8.806611 16.457549 0.513306 3.043532 -64.866566 -5.524809 13.183678 -8.909155 3.169037 -9.137800 24.477549 -3.566544 -15.513779 0.180454 -2.042807 -3.859804 -9.235214 9.879586 7.605766 0.510255 1.984630 -1.207091 -0.442798 -0.082106 
-29.681353 12.399361 80.847488 -7.664214 5.988865 -86.261061 0.148014 -3.194894 1.096446 0.157655 -1.410076 0.489291 0.157654 -1.410077 0.489291 0.119364 -1.057431 0.367312 -2.748567 -14.536914 -4.393566 -6.844410 8.821082 -9.303664 11.059013 -3.473926 -2.386068 77.194040 -7.619041 22.743854 13.066628 -10.922817 26.356872 -33.729390 28.012650 42.943807 -9.640118 -1.188679 0.470775 -67.567482 22.992006 11.567108 11.912512 18.931054 10.853980 16.154714 5.478790 -17.116401 -7.555525 18.738434 3.090127 3.892533 -63.159340 -6.507191 11.589812 -7.020673 1.878702 -6.956569 22.129506 -2.364378 -15.560151 -0.285276 -1.876717 -3.602132 -9.518684 10.010902 7.658334 1.366384 1.743930 -1.163234 -0.424650 -0.048949 
-28.831812 12.418406 80.896034 -7.566533 5.858826 -86.109049 0.242784 -3.124879 0.775514 0.178964 -1.376474 0.345871 0.178965 -1.376474 0.345870 0.134996 -1.032255 0.259795 -2.807817 -14.664076 -4.200095 -6.869604 8.598815 -8.951555 10.980451 -3.289114 -2.507871 77.852443 -6.700189 20.947845 13.655324 -8.235938 23.080515 -33.847177 29.675075 42.747483 -9.892593 -1.550510 0.103803 -68.850014 21.917761 9.233959 10.879434 19.728709 9.673631 16.214516 5.907425 -18.548866 -6.263555 20.703512 5.573807 4.778367 -60.434955 -7.444974 9.618026 -5.741185 0.378563 -4.782278 19.776048 -1.365798 -15.579832 -0.733676 -1.969474 -3.342487 -9.763037 10.219542 7.700671 2.118835 1.659678 -1.140191 -0.367783 -0.051695 
-27.972019 12.423572 80.954323 -7.480048 5.719319 -85.895619 0.299776 -3.044047 0.461512 0.196754 -1.339955 0.205340 0.196753 -1.339956 0.205339 0.148008 -1.004901 0.154429 -2.805667 -14.810370 -4.039533 -6.791026 8.343911 -8.636616 10.884942 -3.151718 -2.643212 78.431452 -5.586812 19.159306 14.057043 -4.962807 19.848408 -33.031782 30.793607 42.355905 -10.061354 -2.089818 -0.178023 -70.179524 20.780630 6.593994 9.749297 20.404048 8.328813 16.047560 6.555158 -19.709887 -5.090405 22.286759 7.960793 5.488290 -56.829998 -8.702596 7.556851 -5.039960 -0.729913 -2.747412 17.308743 -0.623122 -15.580175 -1.218105 -2.301900 -3.096943 -9.971288 10.459158 7.714798 2.788363 1.724297 -1.114463 -0.284700 -0.048827 
